HIERARCHY
ROOT Hips
{
	OFFSET	0.00	0.00	0.00
	CHANNELS 6 Xposition Yposition Zposition Zrotation Xrotation Yrotation
	JOINT LeftUpLeg
	{
		OFFSET	 0.126116	-0.014019	-0.065224
		CHANNELS 3 Zrotation Xrotation Yrotation
		JOINT LeftLeg
		{
			OFFSET	 0.000000	 0.000000	 0.569914
			CHANNELS 3 Zrotation Xrotation Yrotation
			JOINT LeftFoot
			{
				OFFSET	 0.000000	 0.000000	 0.544423
				CHANNELS 3 Zrotation Xrotation Yrotation
				JOINT LeftToeBase
				{
					OFFSET	 0.000000	 0.000000	 0.207117
					CHANNELS 3 Zrotation Xrotation Yrotation
					End Site
					{
						OFFSET	 0.000000	 0.000000	 0.207117
					}
				}
			}
		}
	}
	JOINT RightUpLeg
	{
		OFFSET	-0.124023	-0.008373	-0.065224
		CHANNELS 3 Zrotation Xrotation Yrotation
		JOINT RightLeg
		{
			OFFSET	 0.000000	 0.000000	 0.570047
			CHANNELS 3 Zrotation Xrotation Yrotation
			JOINT RightFoot
			{
				OFFSET	 0.000000	 0.000000	 0.544354
				CHANNELS 3 Zrotation Xrotation Yrotation
				JOINT RightToeBase
				{
					OFFSET	 0.000000	 0.000000	 0.207540
					CHANNELS 3 Zrotation Xrotation Yrotation
					End Site
					{
						OFFSET	 0.000000	 0.000000	 0.207540
					}
				}
			}
		}
	}
	JOINT Spine
	{
		OFFSET	 0.000184	-0.007763	 0.117403
		CHANNELS 3 Zrotation Xrotation Yrotation
		JOINT Spine1
		{
			OFFSET	 0.000000	 0.000000	 0.137269
			CHANNELS 3 Zrotation Xrotation Yrotation
			JOINT Spine2
			{
				OFFSET	 0.000000	 0.000000	 0.156879
				CHANNELS 3 Zrotation Xrotation Yrotation
				JOINT LeftShoulder
				{
					OFFSET	 0.080501	-0.002496	 0.160144
					CHANNELS 3 Zrotation Xrotation Yrotation
					JOINT LeftArm
					{
						OFFSET	 0.000000	 0.000000	 0.164363
						CHANNELS 3 Zrotation Xrotation Yrotation
						JOINT LeftForeArm
						{
							OFFSET	 0.000000	 0.000000	 0.364576
							CHANNELS 3 Zrotation Xrotation Yrotation
							JOINT LeftHand
							{
								OFFSET	 0.000000	 0.000000	 0.360812
								CHANNELS 3 Zrotation Xrotation Yrotation
								JOINT LeftHandIndex1
								{
									OFFSET	 0.000000	 0.000000	 0.086006
									CHANNELS 3 Zrotation Xrotation Yrotation
									JOINT LeftHandIndex2
									{
										OFFSET	 0.000000	 0.000000	 0.047236
										CHANNELS 3 Zrotation Xrotation Yrotation
										JOINT LeftHandIndex3
										{
											OFFSET	-0.004284	-0.000551	 0.038166
											CHANNELS 3 Zrotation Xrotation Yrotation
											End Site
											{
												OFFSET	-0.004284	-0.000551	 0.038166
											}
										}
									}
								}
							}
						}
					}
				}
				JOINT Neck
				{
					OFFSET	 0.000000	 0.000000	 0.176489
					CHANNELS 3 Zrotation Xrotation Yrotation
					JOINT Head
					{
						OFFSET	 0.000000	-0.001747	 0.077940
						CHANNELS 3 Zrotation Xrotation Yrotation
						End Site
						{
							OFFSET	 0.000000	-0.001747	 0.077940
						}
					}
				}
				JOINT RightShoulder
				{
					OFFSET	-0.080363	 0.000306	 0.159706
					CHANNELS 3 Zrotation Xrotation Yrotation
					JOINT RightArm
					{
						OFFSET	 0.000000	 0.000000	 0.164196
						CHANNELS 3 Zrotation Xrotation Yrotation
						JOINT RightForeArm
						{
							OFFSET	 0.000000	 0.000000	 0.365611
							CHANNELS 3 Zrotation Xrotation Yrotation
							JOINT RightHand
							{
								OFFSET	 0.000000	 0.000000	 0.360648
								CHANNELS 3 Zrotation Xrotation Yrotation
								JOINT RightHandIndex1
								{
									OFFSET	 0.000000	 0.000000	 0.069977
									CHANNELS 3 Zrotation Xrotation Yrotation
									JOINT RightHandIndex2
									{
										OFFSET	 0.000000	 0.000000	 0.052305
										CHANNELS 3 Zrotation Xrotation Yrotation
										JOINT RightHandIndex3
										{
											OFFSET	 0.009002	-0.000782	 0.042196
											CHANNELS 3 Zrotation Xrotation Yrotation
											End Site
											{
												OFFSET	 0.009002	-0.000782	 0.042196
											}
										}
									}
								}
							}
						}
					}
				}
			}
		}
	}
}
MOTION
Frames:    5
Frame Time: 0.03333334
 0.000295	 0.019667	 1.271897	-0.003094	 0.003478	 0.173444	-18.228350	-2.095937	-179.258400	 1.460600	-12.931640	-0.756853	-2.301275	 71.884580	-4.296407	-2.385833	 28.452760	 0.000004	 18.075900	-2.213703	 179.063600	-1.452940	-12.511190	 0.717985	 2.260631	 71.481440	 4.140125	 2.384658	 28.388730	 0.000004	-4.286902	 2.696806	 0.298234	-2.161393	 3.755229	-0.805449	 6.543256	-4.612308	 1.415932	-91.776210	 78.527450	-180.000000	 67.093520	 43.381420	-52.586780	-7.447605	 5.688888	-14.391220	-30.857160	-18.708170	-4.595214	-2.635965	 4.993658	 6.788941	-5.165319	 0.784187	 3.516649	-5.225038	 0.466231	 0.424329	-0.000002	-3.783157	-0.089647	 6.365391	 4.576387	-0.254621	 89.782070	 78.203890	-180.000000	-64.939470	 42.278060	 56.139430	 7.475698	 5.221926	 12.018880	 31.795080	-19.413260	 9.431129	 6.112037	 4.509576	-0.364401	 4.968462	 1.518543	-9.347576	 5.168945	 0.703820	 2.021906
 0.000298	 0.019620	 1.272650	-0.002923	 0.003811	 0.174118	-18.225890	-2.093885	-179.259600	 1.460665	-12.927100	-0.756577	-2.327189	 71.756430	-4.269407	-2.385833	 28.452760	 0.000004	 18.073310	-2.210645	 179.063500	-1.453041	-12.503830	 0.717549	 2.284883	 71.351870	 4.115009	 2.384658	 28.388730	 0.000004	-4.274672	 2.658877	 0.292305	-2.157236	 3.886606	-0.794274	 6.529995	-4.782230	 1.424352	-91.776300	 78.527470	-179.999900	 67.130070	 43.409610	-52.535970	-7.441613	 5.696146	-14.410020	-30.941310	-19.598300	-4.622990	-2.635965	 4.993658	 6.788941	-5.165319	 0.784187	 3.516649	-5.225038	 0.466231	 0.424329	-0.000002	-3.783157	-0.089647	 6.345607	 4.498734	-0.249516	 89.782220	 78.203890	 179.999900	-64.800350	 42.166490	 56.272190	 7.252724	 5.169279	 12.027090	 31.843090	-20.400010	 9.420916	 6.112037	 4.509576	-0.364401	 4.968462	 1.518543	-9.347576	 5.168945	 0.703820	 2.021906
 0.000300	 0.019580	 1.273296	-0.002757	 0.004105	 0.174400	-18.223760	-2.091781	-179.260300	 1.460720	-12.922290	-0.756287	-2.348726	 71.646910	-4.246873	-2.385833	 28.452760	 0.000004	 18.071140	-2.208156	 179.063700	-1.453118	-12.497940	 0.717203	 2.305311	 71.241800	 4.093893	 2.384658	 28.388730	 0.000004	-4.259215	 2.626665	 0.287124	-2.151175	 3.998105	-0.783770	 6.510966	-4.926969	 1.429726	-91.776220	 78.527470	-180.000000	 67.156730	 43.435110	-52.487970	-7.435667	 5.701742	-14.424670	-31.022860	-20.450760	-4.651175	-2.635965	 4.993658	 6.788941	-5.165319	 0.784187	 3.516649	-5.225038	 0.466231	 0.424329	-0.000002	-3.783157	-0.089647	 6.321223	 4.433707	-0.244960	 89.782100	 78.203900	 180.000000	-64.719000	 41.949530	 56.540840	 6.987778	 5.056535	 11.921850	 31.983090	-21.432780	 9.371849	 6.112037	 4.509576	-0.364401	 4.968462	 1.518543	-9.347576	 5.168945	 0.703820	 2.021906
 0.000302	 0.019531	 1.274100	-0.002550	 0.004468	 0.174534	-18.221020	-2.088849	-179.261100	 1.460813	-12.915540	-0.755879	-2.374653	 71.511890	-4.219618	-2.385833	 28.452760	 0.000004	 18.068480	-2.205020	 179.064200	-1.453205	-12.490690	 0.716771	 2.329961	 71.106530	 4.068394	 2.384658	 28.388730	 0.000004	-4.233877	 2.587251	 0.280459	-2.140543	 4.134576	-0.769747	 6.477859	-5.104824	 1.434061	-91.776210	 78.527450	-180.000000	 67.182860	 43.468050	-52.421700	-7.427235	 5.708094	-14.441130	-31.135630	-21.614050	-4.692202	-2.635965	 4.993658	 6.788941	-5.165319	 0.784187	 3.516649	-5.225038	 0.466231	 0.424329	-0.000002	-3.783157	-0.089647	 6.281837	 4.355242	-0.239119	 89.782140	 78.203830	 180.000000	-64.602040	 41.591260	 57.035100	 6.618599	 4.846332	 11.645710	 32.226960	-22.882870	 9.290371	 6.112037	 4.509576	-0.364401	 4.968462	 1.518543	-9.347576	 5.168945	 0.703820	 2.021906
 0.000304	 0.019488	 1.274825	-0.002368	 0.004787	 0.174313	-18.218550	-2.086178	-179.261500	 1.460901	-12.909220	-0.755496	-2.397411	 71.391300	-4.195663	-2.385833	 28.452760	 0.000004	 18.066020	-2.202603	 179.064800	-1.453279	-12.485200	 0.716446	 2.351629	 70.986340	 4.045887	 2.384658	 28.388730	 0.000004	-4.205375	 2.552267	 0.274401	-2.128060	 4.255720	-0.756297	 6.439239	-5.263325	 1.435777	-91.776210	 78.527450	-180.000000	 67.199290	 43.498600	-52.354550	-7.418789	 5.713371	-14.454830	-31.248120	-22.755380	-4.735419	-2.635965	 4.993658	 6.788941	-5.165319	 0.784187	 3.516649	-5.225038	 0.466231	 0.424329	-0.000002	-3.783157	-0.089647	 6.237907	 4.286598	-0.233697	 89.782170	 78.203870	 179.999900	-64.416530	 41.244130	 57.578030	 6.272292	 4.614539	 11.293330	 32.462920	-24.288350	 9.225154	 6.112037	 4.509576	-0.364401	 4.968462	 1.518543	-9.347576	 5.168945	 0.703820	 2.021906
